<?xml version="1.0" encoding="utf-8"?>
<!-- Generator: Adobe Illustrator 17.0.0, SVG Export Plug-In . SVG Version: 6.00 Build 0)  -->
<!DOCTYPE svg PUBLIC "-//W3C//DTD SVG 1.1//EN" "http://www.w3.org/Graphics/SVG/1.1/DTD/svg11.dtd">
<svg version="1.1" id="Layer_1" xmlns="http://www.w3.org/2000/svg" xmlns:xlink="http://www.w3.org/1999/xlink" x="0px" y="0px"
	 width="111.083px" height="111.167px" viewBox="0 0 111.083 111.167" enable-background="new 0 0 111.083 111.167"
	 xml:space="preserve">
<g id="ifEfAQ_2_">
	<g>
		<path fill="#FFFFFF" stroke="#666666" stroke-width="4.4614" stroke-miterlimit="10" d="M109.139,51.096
			c-3.318,0.858-6.636,1.716-10.184,2.634c9.261,9.032,9.654,22.552,1.331,32.428c-0.492,0.584-1.126,1.416-1.05,2.056
			c1.09,9.158-5.491,8.738-10.74,7.517c-3.073-0.715-5.396-4.657-8.056-7.147c0.499-0.838,0.998-1.676,1.497-2.514
			c-8.538,0-17.076,0-25.615,0c-8.584,0-17.169,0-26.465,0c0.495,8.45-3.716,11.835-11.415,9.806
			c-2.23-0.588-4.145-3.108-5.732-5.116c-0.891-1.127-0.387-4.041-1.247-4.403C4.049,83.236,6.165,76.826,5.9,71.262
			c-0.314-6.589-1.066-13.394,7.459-16.734C2.785,51.033,0.301,47.265,2.889,37.252c0.622-2.405,4.773-3.898,9.101-7.172
			c0.377,6.852,0.585,10.632,0.793,14.413c0.478,0.103,0.957,0.206,1.435,0.309c1.163-6.715,2.794-13.391,3.356-20.155
			c0.56-6.742,3.594-9.889,10.252-9.886c18.528,0.01,37.056-0.038,55.583-0.042c6.848-0.002,10.234,3.164,10.762,10.295
			c0.498,6.725,2.148,13.365,4.721,19.83c0.17-3.799,0.34-7.598,0.564-12.606c3.605,0.821,6.644,1.513,9.684,2.205
			C109.139,39.993,109.139,45.545,109.139,51.096z M92.31,52.455c-1.845-8.601-3.155-16.547-5.42-24.211
			c-0.737-2.495-3.674-5.612-6.1-6.131c-16.724-3.58-33.598-3.564-50.329,0.085c-2.101,0.458-4.805,2.855-5.361,4.869
			c-2.27,8.218-3.814,16.637-5.713,25.387C43.763,52.455,67.573,52.455,92.31,52.455z M32.594,69.272
			c-0.856-6.114-4.24-9.886-10.409-9.668c-5.693,0.2-9.374,3.823-9.411,9.623c-0.038,6.152,3.583,10.001,9.801,10.037
			C28.848,79.299,31.922,75.31,32.594,69.272z M88.666,79.481c6.174-0.535,10.14-3.668,10.247-9.869
			c0.107-6.205-3.716-9.965-9.845-10.006c-5.711-0.038-9.455,3.458-9.757,9.261C78.984,75.124,82.722,78.437,88.666,79.481z"/>
	</g>
</g>
</svg>
