<?xml version="1.0" encoding="utf-8"?>
<!-- Generator: Adobe Illustrator 17.0.0, SVG Export Plug-In . SVG Version: 6.00 Build 0)  -->
<!DOCTYPE svg PUBLIC "-//W3C//DTD SVG 1.1//EN" "http://www.w3.org/Graphics/SVG/1.1/DTD/svg11.dtd">
<svg version="1.1" id="Layer_1" xmlns="http://www.w3.org/2000/svg" xmlns:xlink="http://www.w3.org/1999/xlink" x="0px" y="0px"
	 width="111.083px" height="111.167px" viewBox="0 0 111.083 111.167" enable-background="new 0 0 111.083 111.167"
	 xml:space="preserve">
<g>
	<g>
		<path fill="#FFFFFF" stroke="#666666" stroke-width="4.4614" stroke-miterlimit="10" d="M92.267,66.217
			c-7.889-9.407-4.422-25.06-4.422-25.06s-28.008-14.741-67.809,0c6.633,14.741-2.948,25.06-2.948,25.06S0.135,80.221,9.717,98.647
			c2.017,0.222,3.997,0.422,5.942,0.603c0.514,4.623,3.268,8.154,6.59,8.154c3.088,0,5.685-3.051,6.449-7.194
			c25.074,1.344,43.239-0.717,55.442-3.279c-0.013,0.249-0.022,0.5-0.022,0.755c0,5.367,2.99,9.718,6.677,9.718
			c3.688,0,6.677-4.351,6.677-9.718c0-1.49-0.231-2.901-0.643-4.163c4.919-1.675,7.23-2.984,7.23-2.984
			S107.008,69.165,92.267,66.217z"/>
		<polygon fill="#666666" stroke="#666666" stroke-width="1.9205" stroke-miterlimit="10" points="31.257,47.756 23.887,66.85 
			85.799,66.85 79.166,47.756 		"/>
		<circle fill="#666666" stroke="#666666" stroke-width="1.9205" stroke-miterlimit="10" cx="25.932" cy="85.38" r="6.633"/>
		<circle fill="#666666" stroke="#666666" stroke-width="1.9205" stroke-miterlimit="10" cx="86.535" cy="83.701" r="7.371"/>
	</g>
	<path fill="#FFFFFF" stroke="#666666" stroke-width="3.2018" stroke-miterlimit="10" d="M82.294,11.175
		c0,0-2.666,5.517-8.068,6.044c-5.402,0.527-10.738,10.946-5.312,14.194S86.568,26.04,82.294,11.175z"/>
	<path fill="#FFFFFF" stroke="#666666" stroke-width="3.2018" stroke-miterlimit="10" d="M92.302,9.775c0,0-0.415,3.14-2.981,4.273
		c-2.566,1.134-3.497,7.112-0.308,7.827C92.204,22.591,96.808,16.378,92.302,9.775z"/>
	<path fill="#FFFFFF" stroke="#666666" stroke-width="3.2018" stroke-miterlimit="10" d="M80.296,2.761c0,0-3.605,2.581-3.17,5.819
		c0.435,3.238-6.327,8.288-9.51,5.742C64.434,11.776,68.847,3.057,80.296,2.761z"/>
</g>
</svg>
