<?xml version="1.0" encoding="utf-8"?>
<!-- Generator: Adobe Illustrator 17.0.0, SVG Export Plug-In . SVG Version: 6.00 Build 0)  -->
<!DOCTYPE svg PUBLIC "-//W3C//DTD SVG 1.1//EN" "http://www.w3.org/Graphics/SVG/1.1/DTD/svg11.dtd">
<svg version="1.1" id="Layer_1" xmlns="http://www.w3.org/2000/svg" xmlns:xlink="http://www.w3.org/1999/xlink" x="0px" y="0px"
	 width="111.083px" height="111.167px" viewBox="0 0 111.083 111.167" enable-background="new 0 0 111.083 111.167"
	 xml:space="preserve">
<g>
	<path fill="#666666" stroke="#666666" stroke-width="1.9205" stroke-miterlimit="10" d="M97.842,14.102
		c-2.814-2.66-9.832,0.193-15.676,6.374c-2.596,2.745-4.521,5.684-5.615,8.337L53.179,56.936c0.037,2.789,0.11,5.578,0.208,8.367
		l0.583-0.542l31.117-28.952c2.38-1.267,4.919-3.213,7.269-5.698C98.199,23.93,100.656,16.763,97.842,14.102z M90.056,26.184
		c-2.395,2.533-5.272,3.703-6.425,2.612c-1.153-1.09-0.146-4.028,2.249-6.561c2.395-2.533,5.272-3.703,6.425-2.612
		C93.458,20.714,92.451,23.651,90.056,26.184z"/>
	<g>
		<path fill="#FFFFFF" d="M32.534,72.268c0,0-22.745,6.437,9.441,15.449s29.611-7.725,39.482-13.304
			c9.87-5.579,21.458,1.717,21.028,7.296"/>
		<g>
			<path fill="#666666" d="M28.386,71.895c-2.901,0.836-8.264,2.667-8.454,6.297c-0.181,3.465,5.887,5.704,8.209,6.694
				c7.376,3.145,15.448,5.034,23.398,5.937c9.223,1.047,19.677,0.503,26.057-7.01c2.079-2.449,3.727-5.224,6.072-7.446
				c2.362-2.237,4.967-3.389,8.11-1.984c2.951,1.319,5.826,3.959,5.906,7.354c0.029,1.224,9.629,1.068,9.602-0.055
				c-0.272-11.598-21.937-11.717-29.04-8.162c-6.241,3.124-8.508,9.957-14.125,13.81c-5.065,3.475-10.743,1.828-16.282,0.433
				c-5.369-1.352-14.373-3.079-17.816-8.084c-2.511-3.65,4.116-6.305,6.658-7.038c1.895-0.546-1.334-1.03-1.729-1.066
				C32.85,71.386,30.439,71.303,28.386,71.895L28.386,71.895z"/>
		</g>
	</g>
	<g>
		
			<rect x="18.853" y="37.806" fill="#FFFFFF" stroke="#666666" stroke-width="3.2018" stroke-miterlimit="10" width="52.742" height="6.851"/>
		
			<rect x="18.853" y="31.698" fill="#FFFFFF" stroke="#666666" stroke-width="3.2018" stroke-miterlimit="10" width="52.742" height="6.851"/>
		
			<rect x="18.853" y="25.589" fill="#FFFFFF" stroke="#666666" stroke-width="3.2018" stroke-miterlimit="10" width="52.742" height="6.851"/>
		
			<rect x="18.853" y="19.48" fill="#FFFFFF" stroke="#666666" stroke-width="3.2018" stroke-miterlimit="10" width="52.742" height="6.851"/>
		
			<rect x="18.853" y="13.067" fill="#FFFFFF" stroke="#666666" stroke-width="3.2018" stroke-miterlimit="10" width="52.742" height="6.851"/>
		<path fill="#FFFFFF" stroke="#666666" stroke-width="3.2018" stroke-miterlimit="10" d="M76.744,93.563h-4.59v-75.96h4.59
			c3.422,0,6.196-2.774,6.196-6.196s-2.774-6.196-6.196-6.196H14.782c-3.422,0-6.196,2.774-6.196,6.196s2.774,6.196,6.196,6.196
			h4.36v75.96h-4.36c-3.422,0-6.196,2.774-6.196,6.196c0,3.422,2.774,6.196,6.196,6.196h61.961c3.422,0,6.196-2.774,6.196-6.196
			C82.94,96.337,80.165,93.563,76.744,93.563z"/>
		<g>
			
				<rect x="17.618" y="60.505" fill="#FFFFFF" stroke="#666666" stroke-width="3.2018" stroke-miterlimit="10" width="56.123" height="6.352"/>
			
				<rect x="17.618" y="54.841" fill="#FFFFFF" stroke="#666666" stroke-width="3.2018" stroke-miterlimit="10" width="56.123" height="6.352"/>
			
				<rect x="17.618" y="49.177" fill="#FFFFFF" stroke="#666666" stroke-width="3.2018" stroke-miterlimit="10" width="56.123" height="6.352"/>
			
				<rect x="17.618" y="43.513" fill="#FFFFFF" stroke="#666666" stroke-width="3.2018" stroke-miterlimit="10" width="56.123" height="6.352"/>
			
				<rect x="17.618" y="37.161" fill="#FFFFFF" stroke="#666666" stroke-width="3.2018" stroke-miterlimit="10" width="56.123" height="6.352"/>
			
				<rect x="17.618" y="31.497" fill="#FFFFFF" stroke="#666666" stroke-width="3.2018" stroke-miterlimit="10" width="56.123" height="6.352"/>
			
				<rect x="17.618" y="25.833" fill="#FFFFFF" stroke="#666666" stroke-width="3.2018" stroke-miterlimit="10" width="56.123" height="6.352"/>
			
				<rect x="17.618" y="19.48" fill="#FFFFFF" stroke="#666666" stroke-width="3.2018" stroke-miterlimit="10" width="56.123" height="6.352"/>
			
				<rect x="17.618" y="83.85" fill="#FFFFFF" stroke="#666666" stroke-width="3.2018" stroke-miterlimit="10" width="56.123" height="6.352"/>
			
				<rect x="17.618" y="77.497" fill="#FFFFFF" stroke="#666666" stroke-width="3.2018" stroke-miterlimit="10" width="56.123" height="6.352"/>
			
				<rect x="17.618" y="71.833" fill="#FFFFFF" stroke="#666666" stroke-width="3.2018" stroke-miterlimit="10" width="56.123" height="6.352"/>
			
				<rect x="17.618" y="66.169" fill="#FFFFFF" stroke="#666666" stroke-width="3.2018" stroke-miterlimit="10" width="56.123" height="6.352"/>
		</g>
	</g>
	<path fill="#666666" stroke="#666666" stroke-width="1.9205" stroke-miterlimit="10" d="M56.84,53.567L28.755,87.359l31.586-29.389
		c-0.098-2.789-0.171-5.578-0.208-8.367L56.84,53.567z"/>
</g>
</svg>
