<?xml version="1.0" encoding="utf-8"?>
<!-- Generator: Adobe Illustrator 17.0.0, SVG Export Plug-In . SVG Version: 6.00 Build 0)  -->
<!DOCTYPE svg PUBLIC "-//W3C//DTD SVG 1.1//EN" "http://www.w3.org/Graphics/SVG/1.1/DTD/svg11.dtd">
<svg version="1.1" id="Layer_1" xmlns="http://www.w3.org/2000/svg" xmlns:xlink="http://www.w3.org/1999/xlink" x="0px" y="0px"
	 width="111.083px" height="111.167px" viewBox="0 0 111.083 111.167" enable-background="new 0 0 111.083 111.167"
	 xml:space="preserve">
<g>
	<g>
		<polygon fill="#666666" stroke="#666666" stroke-width="1.9205" stroke-miterlimit="10" points="2.451,53.559 108.635,55.176 
			108.632,53.755 2.448,52.137 		"/>
		<path fill="#666666" stroke="#666666" stroke-width="1.9205" stroke-miterlimit="10" d="M99.51,48.99
			c-5.303-19.922-22.925-34.624-43.964-34.769c-21.04-0.145-38.863,14.313-44.439,34.16L99.51,48.99z"/>
		
			<rect x="54.301" y="9.828" fill="#666666" stroke="#666666" stroke-width="1.9205" stroke-miterlimit="10" width="4.897" height="7.632"/>
	</g>
	<path fill="#FFFFFF" stroke="#666666" stroke-width="4.4614" stroke-miterlimit="10" d="M56.998,67.538
		c0,0-22.886-21.077-26.765-5.234c1.552,16.567,20.947,22.501,13.383,39.035c28.511,0,28.511,0,28.511,0s1.552-33.972,3.879-33.043
		s3.879-5.154,0-5.992c-3.879-0.838-9.533,5.234-9.533,5.234l-3.89,5.234L56.998,67.538z"/>
</g>
</svg>
