<?xml version="1.0" encoding="utf-8"?>
<!-- Generator: Adobe Illustrator 17.0.0, SVG Export Plug-In . SVG Version: 6.00 Build 0)  -->
<!DOCTYPE svg PUBLIC "-//W3C//DTD SVG 1.1//EN" "http://www.w3.org/Graphics/SVG/1.1/DTD/svg11.dtd">
<svg version="1.1" id="Layer_1" xmlns="http://www.w3.org/2000/svg" xmlns:xlink="http://www.w3.org/1999/xlink" x="0px" y="0px"
	 width="111.083px" height="111.167px" viewBox="0 0 111.083 111.167" enable-background="new 0 0 111.083 111.167"
	 xml:space="preserve">
<g>
	<g>
		<g>
			<path fill="#FFFFFF" d="M6.756,69.706c2.154-0.79,4.535-1.293,7.048-1.412c7.144-0.336,13.283,2.473,15.975,6.769l24.779-44.738
				c0,0-18.347-18.829-25.979-14.389c-1.249,0.727-2.619,1.906-4.049,3.393c8.14,2.131,16.073,6.525,23.214,10.91l-23.467-10.63
				c-3.621,3.842-7.616,9.719-11.205,16.092c8.448-0.07,17.099,4.054,24.262,7.884l-24.529-7.414
				c-2.257,4.046-4.338,8.25-6.033,12.239c5.933,0.604,11.783,2.047,17.386,3.954l-17.425-3.86
				c-0.796,1.878-1.491,3.689-2.094,5.421c8.117-0.081,17.199,1.35,24.396,6.596l-24.463-6.41c-1.213,3.514-2,6.652-2.133,9.019
				c-0.007,0.119,0.043,0.228,0.045,0.346c4.37-0.802,9.49-2.824,12.388,0.017L2.5,63.599C2.595,65.915,4.25,67.958,6.756,69.706z"
				/>
			<g>
				<path fill="#666666" d="M6.756,71.141c5.818-1.887,11.685-1.924,17.333,0.522c2.35,1.018,4.233,2.772,5.69,4.835
					c-0.036-0.052,0.4-0.722,0.428-0.773c2.642-4.77,5.284-9.539,7.925-14.309c5.475-9.886,10.951-19.771,16.426-29.657
					c0.155-0.28,0.202-2.664,0-2.87c-3.621-3.696-7.605-7.081-11.815-10.083c-2.843-2.027-5.934-3.829-9.329-4.725
					c-3.806-1.004-6.324,1.263-8.884,3.812c-0.148,0.147-0.037,2.86,0,2.87c8.331,2.347,15.857,6.431,23.214,10.91
					c0-0.957,0-1.913,0-2.87c-5.522-2.501-11.044-5.003-16.566-7.504c-2.285-1.035-4.57-2.07-6.856-3.106
					c-1.651-0.748-10.373,14.538-11.251,16.071c-0.137,0.24,0.049,2.871,0,2.87c8.765,0.21,16.643,3.85,24.262,7.884
					c0-0.957,0-1.913,0-2.87c-5.177-1.565-10.354-3.129-15.531-4.694c-2.759-0.834-5.518-1.668-8.277-2.502
					c-1.985-0.6-5.902,10.058-6.755,12.021c-0.106,0.245-0.014,2.869,0,2.87c5.957,0.69,11.697,2.074,17.386,3.954
					c0-0.957,0-1.913,0-2.87c-3.386-0.75-6.772-1.5-10.158-2.25c-2.077-0.46-4.155-0.92-6.232-1.381
					c-2.175-0.482-2.512,3.47-3.128,5.192c-0.095,0.265,0.029,2.87,0,2.87c8.71,0.017,17.109,1.602,24.396,6.596
					c0-0.957,0-1.913,0-2.87C21.268,57.051,13.5,55.016,5.732,52.98c-2.84-0.744-3.3,7.301-3.306,9.769
					c-0.002,0.72-0.034,1.447,0.059,2.162c-0.012-0.089,5.531-1.171,6.01-1.258c2.389-0.438,4.429-0.172,6.377,1.276
					c0-0.957,0-1.913,0-2.87c-4.124,0.035-8.248,0.07-12.371,0.105c-0.011,0-0.042,2.594,0,2.87
					C2.929,67.833,4.569,69.474,6.756,71.141c-0.447-0.341,0.475-2.508,0-2.87c-2.188-1.667-3.827-3.308-4.256-6.106
					c0,0.957,0,1.913,0,2.87c4.124-0.035,8.248-0.07,12.371-0.105c-0.105,0.001,0.204-2.718,0-2.87
					c-2.043-1.517-3.909-1.555-6.377-1.276c-0.9,0.102-5.97,1.566-6.055,0.913c0,0.957,0,1.913,0,2.87
					c0.21-2.173,0.499-9.448,3.293-8.716c2.733,0.716,5.466,1.432,8.199,2.148c5.035,1.319,10.069,2.638,15.104,3.958
					c-0.279-0.073,0.314-2.655,0-2.87C21.749,54.092,13.35,52.507,4.64,52.49c0,0.957,0,1.913,0,2.87
					c0.425-1.188,1.279-5.602,2.692-5.289c1.907,0.423,3.815,0.845,5.722,1.268c3.702,0.82,7.403,1.64,11.105,2.46
					c-0.215-0.048,0.263-2.783,0-2.87c-5.689-1.88-11.429-3.264-17.386-3.954c0,0.957,0,1.913,0,2.87
					c0.698-1.608,5.064-12.532,6.446-12.114c2.56,0.774,5.121,1.548,7.681,2.322c5.478,1.656,10.956,3.311,16.435,4.967
					c-0.294-0.089,0.333-2.694,0-2.87c-7.62-4.034-15.498-7.674-24.262-7.884c0,0.957,0,1.913,0,2.87
					c3.255-5.688,6.781-11.233,11.205-16.092c0.225-0.247,5.667,2.567,6.084,2.756c5.794,2.625,11.589,5.25,17.383,7.874
					c-0.37-0.168,0.395-2.63,0-2.87c-7.357-4.479-14.883-8.563-23.214-10.91c0,0.957,0,1.913,0,2.87
					c2.728-2.716,4.955-4.575,8.884-3.812c3.385,0.657,6.542,2.81,9.329,4.725c4.245,2.916,8.211,6.405,11.815,10.083
					c0-0.957,0-1.913,0-2.87c-5.475,9.886-10.951,19.771-16.426,29.657c-2.592,4.68-5.184,9.36-7.776,14.04
					c-0.188,0.34-0.376,0.68-0.565,1.02c0.458-0.827-3.925-3.806-4.509-4.18c-5.413-3.47-12.692-3.047-18.526-1.155
					C6.456,68.368,7.017,71.056,6.756,71.141z"/>
			</g>
		</g>
	</g>
	<path fill="#666666" stroke="#666666" stroke-width="1.9205" stroke-miterlimit="10" d="M39.573,84.525
		c2.873-0.102,16.751-11.411,22.904-9.576c16.237,4.84,34.56,19.83,34.56,19.83c1.45,2.13,7.703,1.377,10.328-3.363
		c2.625-4.74,0.752-10.188-1.501-10.438c0,0-22.965-7.588-35.623-18.846c-4.734-4.21,1.858-23.688,0.769-27.181
		c-1.178-3.778-14.452-8.004-14.452-8.004L28.166,78.207C28.166,78.207,36.393,84.638,39.573,84.525z M93.999,83.753
		c0.987-1.782,3.929-2.04,6.572-0.576c2.643,1.464,3.985,4.095,2.998,5.876c-0.987,1.782-3.929,2.04-6.572,0.576
		C94.355,88.166,93.013,85.535,93.999,83.753z"/>
</g>
</svg>
