<?xml version="1.0" encoding="utf-8"?>
<!-- Generator: Adobe Illustrator 17.0.0, SVG Export Plug-In . SVG Version: 6.00 Build 0)  -->
<!DOCTYPE svg PUBLIC "-//W3C//DTD SVG 1.1//EN" "http://www.w3.org/Graphics/SVG/1.1/DTD/svg11.dtd">
<svg version="1.1" id="Layer_1" xmlns="http://www.w3.org/2000/svg" xmlns:xlink="http://www.w3.org/1999/xlink" x="0px" y="0px"
	 width="111.083px" height="111.167px" viewBox="0 0 111.083 111.167" enable-background="new 0 0 111.083 111.167"
	 xml:space="preserve">
<g>
	<path fill="#FFFFFF" stroke="#666666" stroke-width="4.4614" stroke-miterlimit="10" d="M103.872,35.376H7.212
		c-2.053,0-3.718,1.729-3.718,3.861v8.366c0,2.133,1.664,3.861,3.718,3.861h3.603l16.371,54.654h55.081l18.123-54.654h3.482
		c2.053,0,3.718-1.729,3.718-3.861v-8.366C107.589,37.104,105.925,35.376,103.872,35.376z"/>
	<path fill="#FFFFFF" stroke="#666666" stroke-width="4.0769" stroke-miterlimit="10" d="M29.891,5.048
		c0,0,5.507,32.072,21.346,29.181C60.54,18.511,29.891,5.048,29.891,5.048z"/>
	<path fill="#FFFFFF" stroke="#666666" stroke-width="4.0769" stroke-miterlimit="10" d="M80.298,7.452
		c0,0-11.591,30.272-26.549,24.139C47.672,14.254,80.298,7.452,80.298,7.452z"/>
</g>
</svg>
