<?xml version="1.0" encoding="utf-8"?>
<!-- Generator: Adobe Illustrator 17.1.0, SVG Export Plug-In . SVG Version: 6.00 Build 0)  -->
<!DOCTYPE svg PUBLIC "-//W3C//DTD SVG 1.1//EN" "http://www.w3.org/Graphics/SVG/1.1/DTD/svg11.dtd">
<svg version="1.1" id="Layer_1" xmlns="http://www.w3.org/2000/svg" xmlns:xlink="http://www.w3.org/1999/xlink" x="0px" y="0px"
	 viewBox="0 0 52 52" enable-background="new 0 0 52 52" xml:space="preserve">
<g>
	<circle fill="none" stroke="#CCCCCC" stroke-width="0.9003" stroke-miterlimit="10" cx="26" cy="26" r="25.323"/>
	<g>
		<path fill="#38AD9E" d="M28.417,38.777h-3.974c-3.13,0-3.925-1.605-4.103-2.712c-1.358-0.412-2.146-1.426-2.207-2.863
			c-0.374-0.204-0.69-0.462-0.939-0.774c-0.446-0.528-0.674-1.204-0.674-2.001c0-0.396,0.079-0.795,0.236-1.2
			c-0.591-0.844-0.89-1.774-0.89-2.779c0-1.068,0.416-2.576,2.397-3.692c1.17-0.65,2.635-1.03,4.369-1.134
			c-0.043-0.077-0.093-0.159-0.149-0.251c-0.131-0.211-0.296-0.48-0.475-0.829l-0.297-0.514c-0.869-1.657-0.935-4.323-0.935-5.1
			c0-2.121,1.838-4.009,3.286-4.009c0.593,0,1.091,0.297,1.369,0.815c0.125,0.233,0.281,0.606,0.496,1.12
			c0.921,2.198,3.078,7.343,6.62,9.692c0.761,0.459,2.073,1.25,2.367,1.448c0.12,0.039,0.473,0.095,0.856,0.095h1.039
			c0.923,0,0.946,0.683,1.028,2.942c0.043,1.233,0.068,2.856,0.068,4.35c0,1.093-0.014,2.03-0.038,2.707
			c-0.041,1.082-0.075,1.94-0.967,1.94h-2.29c-1.116,1.145-2.306,1.63-3.461,2.105c-0.342,0.142-0.695,0.285-1.05,0.45
			c-0.167,0.075-0.337,0.118-0.507,0.134C29.061,38.761,28.69,38.777,28.417,38.777z"/>
	</g>
</g>
</svg>
