<?xml version="1.0" encoding="utf-8"?>
<!-- Generator: Adobe Illustrator 17.1.0, SVG Export Plug-In . SVG Version: 6.00 Build 0)  -->
<!DOCTYPE svg PUBLIC "-//W3C//DTD SVG 1.1//EN" "http://www.w3.org/Graphics/SVG/1.1/DTD/svg11.dtd">
<svg version="1.1" id="Layer_1" xmlns="http://www.w3.org/2000/svg" xmlns:xlink="http://www.w3.org/1999/xlink" x="0px" y="0px"
	 viewBox="0 0 184.687 28.299" enable-background="new 0 0 184.687 28.299" xml:space="preserve">
<g id="Q0iZ2j_6_">
	<g>
		<path fill="#D8562A" d="M27.555,13.56c1.334-4.047,2.681-8.035,3.951-12.047c0.349-1.103,0.772-1.416,1.901-0.896
			c1.754,0.808,3.575,1.479,5.389,2.148c0.693,0.255,0.852,0.521,0.518,1.223c-3.62,7.605-7.22,15.22-10.801,22.844
			c-0.523,1.113-0.912,0.66-1.385,0.002c-2.197-3.054-4.479-6.051-6.564-9.179c-0.949-1.424-1.354-1.136-2.152,0.062
			c-2.179,3.274-4.48,6.466-6.687,9.722c-0.73,1.077-1.208,1.253-1.768-0.11C6.71,19.433,3.454,11.542,0.151,3.669
			c-0.358-0.854-0.054-1.1,0.638-1.347c1.93-0.69,3.88-1.335,5.762-2.138c1.077-0.46,1.324-0.018,1.597,0.881
			c1.208,3.974,2.469,7.931,3.717,11.893c0.134,0.427,0.304,0.842,0.557,1.534c1.964-3.184,3.811-6.176,5.657-9.17
			c0.299-0.485,0.621-0.959,0.88-1.464c0.49-0.959,0.868-0.971,1.488-0.039c1.989,2.989,4.053,5.929,6.092,8.885
			C26.756,13.018,26.876,13.437,27.555,13.56z"/>
		<path fill="#EF8929" d="M121.67,0.19c3.477,0.057,6.96,0.115,10.342,1.034c6.693,1.818,8.555,8.125,3.963,13.361
			c-2.468,2.814-5.699,4.317-9.271,5.085c-1.241,0.267-1.768,0.711-1.629,2.008c0.126,1.185,0.041,2.391,0.117,3.584
			c0.057,0.902-0.151,1.353-1.197,1.316c-2.05-0.073-4.105-0.051-6.156-0.008c-0.852,0.018-1.043-0.312-1.02-1.115
			c0.225-7.973,0.314-15.947-0.009-23.92c-0.04-0.977,0.101-1.493,1.272-1.373C119.266,0.284,120.473,0.19,121.67,0.19z
			 M125.009,9.955c0,1.251-0.003,2.503,0.001,3.754c0.002,0.479,0.015,0.897,0.724,0.842c1.951-0.151,4.303-2.951,4.274-5.143
			c-0.029-2.201-1.715-3.735-4.155-3.913c-0.79-0.058-0.851,0.301-0.849,0.877C125.011,7.566,125.007,8.761,125.009,9.955z"/>
		<path fill="#D85629" d="M98.184,13.506c2.623-3.117,5.048-5.892,7.338-8.774c0.865-1.088,1.42-1.046,2.335-0.127
			c1.163,1.168,2.438,2.23,3.71,3.282c0.624,0.516,0.693,0.849,0.053,1.437c-1.676,1.542-3.245,3.201-4.935,4.727
			c-0.836,0.755-1.033,1.228-0.074,2.088c1.822,1.633,3.462,3.469,5.278,5.11c0.869,0.785,0.703,1.175-0.121,1.783
			c-1.557,1.149-3.102,2.326-4.556,3.601c-0.814,0.714-1.182,0.42-1.722-0.279c-2.327-3.012-4.698-5.99-7.359-9.368
			c0,2.364-0.006,4.297,0.001,6.229c0.014,3.683,0.017,3.704-3.657,3.673c-1.47-0.013-3.379,0.621-4.291-0.249
			c-0.91-0.868-0.25-2.789-0.264-4.246c-0.055-5.809-0.044-11.618-0.112-17.426c-0.009-0.744,0.126-1.031,0.895-1.02
			c2.165,0.03,4.331,0.05,6.495-0.008c0.903-0.024,1.006,0.386,0.997,1.128C98.165,7.732,98.184,10.397,98.184,13.506z"/>
		<path fill="#D8572A" d="M63.614,15.317c0-3.192,0.042-6.385-0.024-9.576c-0.022-1.053,0.153-1.509,1.357-1.469
			c3.702,0.123,7.418-0.158,11.104,0.377c1.123,0.163,2.258,0.353,3.337,0.692c5.057,1.587,6.034,5.868,2.207,9.527
			c-1.767,1.689-1.764,1.687,0.017,3.366c1.327,1.252,2.622,2.539,3.981,3.755c0.659,0.59,0.813,0.972-0.03,1.546
			c-1.696,1.155-3.355,2.366-4.986,3.61c-0.682,0.52-1.017,0.361-1.458-0.302c-2.147-3.227-4.313-6.441-6.535-9.616
			c-0.547-0.781-0.39-1.133,0.353-1.58c1.149-0.692,2.026-1.652,2.437-2.976c0.668-2.151-1.069-4.086-3.291-3.716
			c-0.697,0.116-0.6,0.564-0.597,0.994c0.032,5.018,0.02,10.038,0.154,15.054c0.032,1.179-0.104,1.65-1.39,1.58
			c-1.82-0.1-3.651-0.071-5.475-0.007c-0.913,0.032-1.155-0.276-1.142-1.167c0.049-3.364,0.02-6.729,0.02-10.093
			C63.641,15.317,63.627,15.317,63.614,15.317z"/>
		<path fill="#EF892A" d="M143.66,27.499c-0.264-0.121-0.474-0.21-0.677-0.313c-1.623-0.823-3.233-1.672-4.873-2.461
			c-0.686-0.33-0.953-0.609-0.471-1.38c4.106-6.56,8.126-13.173,12.418-19.616c0.634-0.952,1.179-1.125,1.903-0.064
			c4.43,6.485,8.88,12.957,13.341,19.421c0.395,0.572,0.31,0.857-0.291,1.176c-1.808,0.961-3.604,1.947-5.375,2.974
			c-0.586,0.34-0.935,0.242-1.228-0.317c-0.026-0.05-0.073-0.092-0.09-0.145c-1.227-3.76-3.986-4.398-7.434-3.673
			c-0.383,0.081-0.8,0.072-1.192,0.026c-2.641-0.307-4.486,0.566-5.177,3.325C144.409,26.869,144.304,27.5,143.66,27.499z
			 M150.877,13.126c-0.909,1.959-1.938,3.376-2.436,5.158c1.431,0,2.724,0.012,4.017-0.005c0.745-0.01,1.066-0.29,0.635-1.058
			C152.405,15.996,151.754,14.751,150.877,13.126z"/>
		<path fill="#D8572B" d="M42.718,15.441c0-3.305,0.025-6.61-0.016-9.915c-0.011-0.893,0.139-1.298,1.185-1.31
			c4.099-0.046,8.198-0.163,12.293-0.336c1.221-0.051,1.553,0.397,1.577,1.554c0.078,3.744,0.116,3.742-3.629,3.864
			c-0.683,0.022-1.375,0.148-2.045,0.07c-1.203-0.139-1.564,0.295-1.515,1.502c0.084,2.098,0.007,2.101,2.295,2.035
			c4.052-0.117,4.019-0.117,3.921,3.981c-0.022,0.923-0.311,1.184-1.182,1.128c-1.079-0.07-2.165-0.018-3.247-0.044
			c-1.544-0.037-2.434,1.463-1.722,2.89c0.245,0.491,0.671,0.3,1.034,0.359c1.76,0.285,3.524,0.094,5.281-0.015
			c0.98-0.06,1.365,0.28,1.244,1.252c-0.049,0.393-0.017,0.797-0.006,1.196c0.098,3.324,0.1,3.306-3.345,3.208
			c-3.585-0.102-7.172-0.222-10.757-0.215c-1.168,0.002-1.41-0.391-1.389-1.461C42.757,21.938,42.718,18.689,42.718,15.441z"/>
		<path fill="#EF8A2B" d="M177.137,12.491c0,2.28,0.049,4.561-0.021,6.838c-0.033,1.085,0.252,1.545,1.416,1.474
			c1.648-0.1,3.307-0.015,4.958-0.084c0.88-0.037,1.256,0.24,1.19,1.152c-0.057,0.794-0.011,1.596-0.011,2.394
			c0,2.669,0,2.69-2.589,2.63c-3.929-0.091-7.857-0.256-11.787-0.299c-1.072-0.012-1.325-0.36-1.319-1.381
			c0.042-6.556,0.04-13.113,0-19.669c-0.006-0.945,0.209-1.304,1.208-1.267c1.936,0.071,3.88,0.09,5.814-0.006
			c1.122-0.055,1.322,0.383,1.294,1.377c-0.064,2.279-0.02,4.56-0.02,6.84C177.225,12.491,177.181,12.491,177.137,12.491z"/>
	</g>
</g>
</svg>
