<?xml version="1.0" encoding="utf-8"?>
<!-- Generator: Adobe Illustrator 17.1.0, SVG Export Plug-In . SVG Version: 6.00 Build 0)  -->
<!DOCTYPE svg PUBLIC "-//W3C//DTD SVG 1.1//EN" "http://www.w3.org/Graphics/SVG/1.1/DTD/svg11.dtd">
<svg version="1.1" id="Layer_1" xmlns="http://www.w3.org/2000/svg" xmlns:xlink="http://www.w3.org/1999/xlink" x="0px" y="0px"
	 viewBox="0 0 92 69" enable-background="new 0 0 92 69" xml:space="preserve">
<g id="Q0iZ2j_5_">
	<g>
		<path fill="#D84E3F" d="M57.806,20.429c1.493-2.191,2.769-4.515,4.14-6.78c2.646-4.37,5.278-8.749,7.882-13.144
			c0.328-0.554,0.556-0.567,1.066-0.259c6.856,4.14,13.719,8.267,20.596,12.371c0.535,0.319,0.593,0.532,0.275,1.061
			C83.614,27.211,75.48,40.754,67.35,54.3c-0.244,0.407-0.408,0.617-0.93,0.295c-2.866-1.769-5.759-3.496-8.643-5.237
			c-0.003-9.467-0.005-18.933-0.008-28.4C57.782,20.782,57.794,20.606,57.806,20.429z"/>
		<path fill="#EE5A33" d="M34.203,49.501c-2.836,1.715-5.679,3.419-8.502,5.154c-0.591,0.363-0.648-0.131-0.821-0.418
			c-2.852-4.734-5.695-9.473-8.542-14.21c-5.252-8.74-10.497-17.484-15.773-26.21c-0.394-0.651-0.307-0.914,0.327-1.292
			c6.813-4.06,13.612-8.142,20.399-12.245c0.575-0.348,0.804-0.328,1.166,0.28c3.515,5.914,7.069,11.804,10.61,17.703
			c0.113,0.188,0.209,0.386,0.313,0.579c0.108,0.263,0.217,0.527,0.325,0.791c-0.268,0.247-0.157,0.572-0.158,0.863
			c-0.009,2.158-0.005,4.316-0.005,6.474c0,7.027,0.001,14.055-0.001,21.082C33.541,48.64,33.547,49.217,34.203,49.501z"/>
		<path fill="#EF8828" d="M33.705,19.633c-0.108-0.264-0.217-0.527-0.325-0.791c0.398-0.215,0.215-0.592,0.216-0.889
			c0.013-5.588,0.022-11.176-0.007-16.763c-0.004-0.718,0.164-0.936,0.913-0.933c7.469,0.029,14.938,0.029,22.407,0
			c0.736-0.003,0.916,0.188,0.913,0.919c-0.03,6.418-0.017,12.835-0.016,19.253c-0.012,0.176-0.024,0.353-0.035,0.529
			c-0.315,0.016-0.367,0.292-0.491,0.498c-3.322,5.537-6.633,11.081-9.981,16.603c-0.385,0.634-0.583,1.428-1.307,1.829
			c-0.976-1.663-1.939-3.334-2.931-4.987c-2.382-3.967-4.762-7.936-7.18-11.881C35.18,21.878,34.644,20.625,33.705,19.633z"/>
		<path fill="#EF792B" d="M33.705,19.633c0.938,0.991,1.474,2.245,2.175,3.388c2.418,3.945,4.798,7.914,7.18,11.881
			c0.993,1.653,1.955,3.324,2.931,4.987c0.027,0.287-0.059,0.554-0.232,0.764c-0.498,0.605-0.711,1.178,0.066,1.725
			c-0.09,0.1-0.163,0.229-0.274,0.295c-2.867,1.719-5.748,3.414-8.6,5.156c-0.729,0.445-1.611,0.705-2.085,1.511
			c-0.221,0.054-0.443,0.107-0.664,0.161c-0.656-0.284-0.662-0.861-0.662-1.449c0.002-7.027,0.001-14.055,0.001-21.082
			c0-2.158-0.004-4.316,0.005-6.474C33.549,20.205,33.438,19.881,33.705,19.633z"/>
		<path fill="#E8762E" d="M45.826,42.378c-0.777-0.547-0.564-1.12-0.066-1.725c0.173-0.21,0.259-0.478,0.232-0.764
			c0.724-0.401,0.923-1.194,1.307-1.829c3.347-5.522,6.659-11.066,9.981-16.603c0.123-0.206,0.175-0.482,0.491-0.498
			c0.002,9.467,0.005,18.933,0.007,28.4c-0.056-0.006-0.112-0.011-0.167-0.017c-0.172-0.134-0.332-0.289-0.518-0.4
			c-2.892-1.733-5.779-3.476-8.687-5.181C47.566,43.268,46.819,42.589,45.826,42.378z"/>
		<path fill="#D8562A" d="M13.402,61.809c0.647-1.962,1.3-3.896,1.916-5.842c0.169-0.535,0.374-0.687,0.922-0.434
			c0.851,0.392,1.733,0.717,2.613,1.042c0.336,0.124,0.413,0.253,0.251,0.593c-1.755,3.688-3.501,7.381-5.238,11.077
			c-0.253,0.54-0.442,0.32-0.672,0.001c-1.065-1.481-2.172-2.934-3.183-4.451c-0.46-0.69-0.657-0.551-1.044,0.03
			c-1.057,1.588-2.173,3.136-3.243,4.715c-0.354,0.522-0.586,0.608-0.857-0.053c-1.574-3.829-3.154-7.656-4.755-11.473
			c-0.174-0.414-0.026-0.533,0.309-0.653c0.936-0.334,1.881-0.647,2.794-1.037C3.74,55.1,3.859,55.314,3.992,55.75
			c0.586,1.927,1.197,3.846,1.802,5.767c0.065,0.207,0.148,0.409,0.27,0.744c0.953-1.544,1.848-2.995,2.743-4.447
			c0.145-0.235,0.301-0.465,0.427-0.71c0.238-0.465,0.421-0.471,0.722-0.019c0.965,1.45,1.965,2.875,2.954,4.309
			C13.015,61.546,13.073,61.749,13.402,61.809z"/>
		<path fill="#EF8929" d="M59.041,55.325c1.686,0.028,3.375,0.056,5.015,0.501c3.246,0.882,4.149,3.94,1.922,6.479
			c-1.197,1.365-2.764,2.093-4.496,2.466c-0.602,0.129-0.857,0.345-0.79,0.974c0.061,0.575,0.02,1.16,0.057,1.738
			c0.028,0.438-0.073,0.656-0.58,0.638c-0.994-0.036-1.991-0.025-2.985-0.004c-0.413,0.009-0.506-0.151-0.495-0.541
			c0.109-3.866,0.152-7.733-0.005-11.599c-0.019-0.474,0.049-0.724,0.617-0.666C57.876,55.371,58.461,55.325,59.041,55.325z
			 M60.66,60.061c0,0.607-0.001,1.214,0.001,1.82c0.001,0.232,0.007,0.435,0.351,0.408c0.946-0.073,2.087-1.431,2.073-2.494
			c-0.014-1.067-0.832-1.811-2.015-1.897c-0.383-0.028-0.413,0.146-0.411,0.425C60.661,58.902,60.659,59.482,60.66,60.061z"/>
		<path fill="#D85629" d="M47.652,61.783c1.272-1.511,2.448-2.857,3.559-4.255c0.419-0.527,0.688-0.507,1.132-0.061
			c0.564,0.566,1.182,1.081,1.799,1.591c0.303,0.25,0.336,0.412,0.026,0.697c-0.813,0.748-1.574,1.552-2.393,2.292
			c-0.405,0.366-0.501,0.596-0.036,1.013c0.883,0.792,1.679,1.682,2.559,2.478c0.422,0.381,0.341,0.57-0.059,0.865
			c-0.755,0.557-1.504,1.128-2.209,1.746c-0.395,0.346-0.573,0.204-0.835-0.135c-1.128-1.461-2.278-2.905-3.569-4.543
			c0,1.146-0.003,2.084,0.001,3.021c0.007,1.786,0.008,1.796-1.773,1.781c-0.713-0.006-1.638,0.301-2.081-0.121
			c-0.441-0.421-0.121-1.352-0.128-2.059c-0.027-2.817-0.021-5.634-0.054-8.45c-0.004-0.361,0.061-0.5,0.434-0.495
			c1.05,0.014,2.1,0.024,3.15-0.004c0.438-0.012,0.488,0.187,0.484,0.547C47.643,58.983,47.652,60.275,47.652,61.783z"/>
		<path fill="#D8572A" d="M30.888,62.661c0-1.548,0.02-3.096-0.011-4.643c-0.01-0.511,0.074-0.732,0.658-0.713
			c1.795,0.06,3.597-0.077,5.384,0.183c0.545,0.079,1.095,0.171,1.618,0.336c2.452,0.77,2.926,2.846,1.07,4.62
			c-0.857,0.819-0.855,0.818,0.008,1.632c0.644,0.607,1.272,1.231,1.931,1.821c0.32,0.286,0.394,0.471-0.014,0.75
			c-0.822,0.56-1.627,1.147-2.418,1.751c-0.331,0.252-0.493,0.175-0.707-0.146c-1.041-1.565-2.091-3.124-3.169-4.663
			c-0.265-0.379-0.189-0.549,0.171-0.766c0.557-0.335,0.982-0.801,1.182-1.443c0.324-1.043-0.519-1.981-1.596-1.802
			c-0.338,0.056-0.291,0.273-0.29,0.482c0.016,2.433,0.01,4.868,0.075,7.3c0.015,0.572-0.05,0.8-0.674,0.766
			c-0.883-0.049-1.771-0.034-2.655-0.003c-0.443,0.015-0.56-0.134-0.554-0.566c0.024-1.631,0.01-3.263,0.01-4.894
			C30.902,62.661,30.895,62.661,30.888,62.661z"/>
		<path fill="#EF8727" d="M45.826,42.378c0.993,0.211,1.74,0.89,2.58,1.383c2.908,1.705,5.795,3.448,8.687,5.181
			c0.186,0.111,0.346,0.266,0.518,0.4c-3.639,0.011-7.278,0.032-10.917,0.032c-3.942-0.001-7.885-0.021-11.827-0.033
			c0.474-0.806,1.356-1.066,2.085-1.511c2.852-1.742,5.734-3.438,8.6-5.156C45.663,42.607,45.735,42.478,45.826,42.378z"/>
		<path fill="#EF892A" d="M69.705,68.568c-0.128-0.059-0.23-0.102-0.328-0.152c-0.787-0.399-1.568-0.811-2.363-1.193
			c-0.332-0.16-0.462-0.295-0.228-0.669c1.991-3.181,3.941-6.388,6.022-9.512c0.308-0.462,0.572-0.545,0.923-0.031
			c2.148,3.145,4.306,6.283,6.469,9.418c0.192,0.278,0.151,0.415-0.141,0.57c-0.877,0.466-1.747,0.944-2.606,1.442
			c-0.284,0.165-0.453,0.117-0.596-0.154c-0.013-0.024-0.035-0.045-0.044-0.07c-0.595-1.823-1.933-2.133-3.605-1.781
			c-0.186,0.039-0.388,0.035-0.578,0.013c-1.281-0.149-2.175,0.275-2.51,1.612C70.068,68.263,70.017,68.569,69.705,68.568z
			 M73.204,61.598c-0.441,0.95-0.94,1.637-1.181,2.501c0.694,0,1.321,0.006,1.948-0.002c0.361-0.005,0.517-0.141,0.308-0.513
			C73.946,62.99,73.63,62.387,73.204,61.598z"/>
		<path fill="#D8572B" d="M20.756,62.721c0-1.603,0.012-3.205-0.008-4.808c-0.005-0.433,0.068-0.629,0.575-0.635
			c1.988-0.022,3.975-0.079,5.961-0.163c0.592-0.025,0.753,0.193,0.765,0.754c0.038,1.815,0.056,1.814-1.76,1.874
			c-0.331,0.011-0.667,0.072-0.992,0.034c-0.583-0.068-0.758,0.143-0.735,0.728c0.041,1.017,0.003,1.019,1.113,0.987
			c1.965-0.057,1.949-0.057,1.902,1.93c-0.011,0.448-0.151,0.574-0.573,0.547c-0.523-0.034-1.05-0.009-1.574-0.021
			c-0.749-0.018-1.18,0.709-0.835,1.402c0.119,0.238,0.325,0.145,0.501,0.174c0.854,0.138,1.709,0.045,2.561-0.007
			c0.475-0.029,0.662,0.136,0.603,0.607c-0.024,0.19-0.008,0.387-0.003,0.58c0.048,1.612,0.049,1.603-1.622,1.556
			c-1.739-0.049-3.478-0.108-5.216-0.104c-0.566,0.001-0.684-0.19-0.674-0.708C20.774,65.872,20.755,64.296,20.756,62.721z"/>
		<path fill="#EF8A2B" d="M85.939,61.29c0,1.105,0.024,2.212-0.01,3.316c-0.016,0.526,0.122,0.749,0.687,0.715
			c0.799-0.048,1.604-0.007,2.404-0.041c0.427-0.018,0.609,0.116,0.577,0.558c-0.028,0.385-0.005,0.774-0.005,1.161
			c0,1.294,0,1.305-1.255,1.275c-1.905-0.044-3.81-0.124-5.716-0.145c-0.52-0.006-0.643-0.175-0.639-0.669
			c0.02-3.179,0.02-6.359,0-9.538c-0.003-0.458,0.101-0.632,0.586-0.614c0.939,0.034,1.882,0.043,2.819-0.003
			c0.544-0.027,0.641,0.186,0.628,0.668c-0.031,1.105-0.01,2.211-0.01,3.317C85.982,61.291,85.96,61.291,85.939,61.29z"/>
	</g>
</g>
</svg>
