<?xml version="1.0" encoding="utf-8"?>
<!-- Generator: Adobe Illustrator 17.1.0, SVG Export Plug-In . SVG Version: 6.00 Build 0)  -->
<!DOCTYPE svg PUBLIC "-//W3C//DTD SVG 1.1//EN" "http://www.w3.org/Graphics/SVG/1.1/DTD/svg11.dtd">
<svg version="1.1" id="Layer_1" xmlns="http://www.w3.org/2000/svg" xmlns:xlink="http://www.w3.org/1999/xlink" x="0px" y="0px"
	 viewBox="0 0 15 15" enable-background="new 0 0 15 15" xml:space="preserve">
<path fill="#808080" d="M7.5,0.082c-4.09,0-7.418,3.328-7.418,7.418c0,4.09,3.327,7.418,7.418,7.418s7.418-3.327,7.418-7.418
	C14.918,3.41,11.59,0.082,7.5,0.082z M13.826,7.5c0,1.447-0.491,2.782-1.31,3.849c-0.232-0.182-0.478-0.671-0.246-1.178
	c0.234-0.51,0.295-1.69,0.241-2.15c-0.051-0.459-0.29-1.566-0.938-1.576c-0.647-0.01-1.091-0.224-1.476-0.992
	c-0.798-1.598,1.499-1.904,0.7-2.79C10.573,2.416,9.419,3.687,9.25,1.993c-0.011-0.12,0.105-0.301,0.259-0.49
	C12.015,2.346,13.826,4.714,13.826,7.5z M6.631,1.236C6.479,1.531,6.08,1.651,5.837,1.872C5.309,2.35,5.082,2.284,4.797,2.743
	c-0.287,0.459-1.211,1.12-1.211,1.452c0,0.331,0.467,0.724,0.7,0.647C4.52,4.766,5.135,4.77,5.497,4.897
	C5.86,5.025,8.522,5.153,7.674,7.404c-0.269,0.715-1.447,0.595-1.761,1.78C5.866,9.357,5.703,10.1,5.692,10.343
	c-0.019,0.375,0.266,1.791-0.097,1.791c-0.364,0-1.343-1.266-1.343-1.496S3.998,9.604,3.998,8.915c0-0.689-1.172-0.678-1.172-1.594
	c0-0.827,0.636-1.237,0.493-1.633C3.179,5.295,2.062,5.28,1.597,5.233C2.41,3.122,4.324,1.555,6.631,1.236z M5.51,13.503
	c0.38-0.2,0.418-0.459,0.763-0.474c0.394-0.018,0.715-0.154,1.159-0.251c0.394-0.086,1.099-0.486,1.721-0.538
	c0.523-0.042,1.556,0.028,1.835,0.533c-1.001,0.665-2.201,1.053-3.488,1.053C6.805,13.826,6.137,13.712,5.51,13.503z"/>
</svg>
