<?xml version="1.0" encoding="utf-8"?>
<!-- Generator: Adobe Illustrator 17.1.0, SVG Export Plug-In . SVG Version: 6.00 Build 0)  -->
<!DOCTYPE svg PUBLIC "-//W3C//DTD SVG 1.1//EN" "http://www.w3.org/Graphics/SVG/1.1/DTD/svg11.dtd">
<svg version="1.1" id="Layer_1" xmlns="http://www.w3.org/2000/svg" xmlns:xlink="http://www.w3.org/1999/xlink" x="0px" y="0px"
	 viewBox="0 0 185 185" enable-background="new 0 0 185 185" xml:space="preserve">
<g>
	<ellipse opacity="0.4" fill="#1A1A1A" cx="66.264" cy="149.835" rx="41.839" ry="7.904"/>
	<g>
		<polygon fill="#F9FCFC" stroke="#F9FCFC" stroke-miterlimit="10" points="87.799,27.261 87.717,96.469 182.158,95.71 
			182.132,27.454 		"/>
		<polyline fill="#7BAD8D" points="97.374,84.644 98.419,79.943 107.529,81.563 106.877,85.586 98.331,85.199 		"/>
		<polygon fill="#7BAD8D" points="113.537,84.828 114.087,76.548 123.75,77.854 123.489,85.427 		"/>
		<polygon fill="#7BAD8D" points="129.945,84.299 130.017,68.975 138.635,69.497 138.635,84.121 		"/>
		<polygon fill="#7BAD8D" points="144.38,84.644 145.947,55.657 154.303,55.134 154.826,83.86 		"/>
		<polygon fill="#7BAD8D" points="161.093,83.86 161.877,36.854 170.233,37.377 170.755,84.121 		"/>
		<path fill="#553725" d="M125.168,75.667l36.429-36.013C161.597,39.653,127.673,78.313,125.168,75.667z"/>
	</g>
	<path fill="#FBDCBE" d="M22.863,89.386c-2.848-1.769-5.541-6.755-7.53-11.094c-5.414-11.81-6.544-15.769-6.544-15.769
		s-0.311-0.856-0.799-0.783c-0.489,0.074-0.599,0.12-0.687,0.161c-0.088,0.041-0.069,0.853-0.069,0.853s-0.166-0.71-0.968-0.526
		c-0.802,0.184-0.48,0.719-0.48,0.719s-0.424-0.443-1.111-0.281s-0.36,0.719-0.36,0.719s-0.415-0.517-1.079-0.36
		s-0.355,0.383-0.028,1.18c0.327,0.798,9.609,21.449,14.841,27.144c1.365,1.485,4.843,3.718,6.712,4.476
		c1.626,0.66,6.493-0.487,6.44-2.187C31.128,91.302,24.851,90.621,22.863,89.386z"/>
	<path fill="#FBDCBE" d="M102.868,88.208c3.35-0.116,8.169-3.099,12.054-5.871c10.576-7.546,13.527-10.416,13.527-10.416
		s0.696-0.588,1.083-0.281c0.387,0.307,0.46,0.402,0.516,0.482c0.055,0.08-0.365,0.774-0.365,0.774s0.497-0.533,1.102,0.026
		c0.604,0.559,0.058,0.863,0.058,0.863s0.588-0.173,1.104,0.309c0.516,0.482-0.046,0.803-0.046,0.803s0.617-0.241,1.115,0.225
		c0.498,0.467,0.117,0.509-0.564,1.038s-19.013,13.816-26.387,16.149c-1.923,0.609-6.051,0.812-8.05,0.54
		c-1.739-0.237-5.388-3.656-4.496-5.103C94.747,85.753,100.53,88.289,102.868,88.208z"/>
	<polyline fill="#F0F0F0" points="89.422,93.336 97.271,92.285 96.199,87.009 90.743,85.774 	"/>
	<path fill="#F0F0F0" d="M35.887,127.524c0,0-4.876-16.939-5.646-24.895c-0.77-7.956-1.027-11.549-1.027-11.549
		s23.612-0.513,29.514-0.513s30.798-4.876,31.824-5.133s1.027,21.045,0.513,23.612c-0.513,2.566-2.31,16.425-2.31,16.425
		s-13.089,2.823-23.355,2.823S35.887,127.524,35.887,127.524z"/>
	<path fill="#FBDCBE" d="M31.474,90.589c0,0-2.179-9.686-1.574-14.408c0.605-4.722,2.668-12.373,5.691-15.014
		c5.142-4.491,15.861-5.327,26.758-5.449s15.52,0.335,19.372,3.39c2.819,2.235,6.466,8.872,7.386,12.35
		c0.847,3.203,1.211,12.955,1.211,13.198s-20.583,4.601-29.664,5.449C51.573,90.952,33.896,91.073,31.474,90.589z"/>
	<path fill="#563725" d="M29.779,90.589c0,0-2.179-6.901-2.3-14.65c-0.121-7.749,2.179-15.256,4.117-17.072s3.622-2.484,4.353-3.006
		c0.73-0.522,1.096-0.522,1.565-1.878s2.4-7.096,4.487-8.766s7.252-5.531,11.687-5.426s14.714,1.826,18.366,2.557
		c3.652,0.73,9.287,1.617,12.627,1.565s5.687-0.678,6.835-1.252c1.148-0.574,2.967-2.133,3.447-2.798
		c0.48-0.664,0.738-1.365,1.033-1.586c0.295-0.221,0.738-0.074,0.738-0.074s-1.66,6.271-2.582,7.821
		c-0.922,1.549-4.132,6.382-5.644,7.821c-1.513,1.439-8.632,6.345-9.518,6.603c-0.885,0.258-10.572,4.125-16.225,4.589
		c-5.653,0.463-17.506-1.404-17.506-1.404s0.157,0.472,0,0.866c-0.157,0.394-0.236,7.005-2.204,6.847
		c-1.968-0.157-3.431-0.487-3.563,1.436c-0.133,1.923-0.166,1.956,0.63,2.453c0.796,0.497,2.453,0.265,2.553,0.829
		s0.099,0.597-0.099,1.061c-0.199,0.464-1.127,5.337-4.641,8.619s-7.227,4.542-7.393,4.708
		C30.374,90.616,30.411,91.125,29.779,90.589z"/>
	<path fill="#563725" d="M68.384,80.954l9.743-1.364c0,0,1.072,5.846-3.118,6.722s-6.722-3.8-6.625-4.969"/>
	<path fill="#563725" d="M35.552,127.329l0.097,19.29c0,0-0.682,1.072,2.631,0.974c3.312-0.097,4.579-0.292,4.871-2.143
		s0-2.143-0.39-2.143c-0.39,0-3.312,1.851-3.702,0.974c-0.39-0.877,1.267-11.009,1.267-11.009s0.097-0.877,1.169-0.877
		s15.88,1.072,17.829,1.072c1.949,0,16.173-1.072,19.095-1.656c2.923-0.585,4.717-1.631,5.009-1.631
		c0.292,0,0.917-0.148,1.064,0.195c0.147,0.343-1.412,16.366-1.215,16.66c0.196,0.294,4.413,0.147,5.933-0.049
		s3.58-1.912,3.531-2.648c-0.049-0.736-0.981-1.373-1.667-1.814c-0.686-0.441-4.364,0.686-4.364,0.686s2.343-15.14,2.245-15.728
		c-0.098-0.588-0.736-1.618-1.667-1.569s-8.171,1.795-9.348,1.942c-1.177,0.147-21.232,0.785-26.577,0.588
		C46.018,128.247,35.824,127.048,35.552,127.329z"/>
	<polygon fill="#563725" points="68.95,93.382 68.317,100.128 70.636,101.287 68.423,113.724 73.482,120.575 78.225,115.411 
		75.59,102.341 76.96,96.65 75.379,93.488 	"/>
	<polyline fill="#F0F0F0" points="33.345,99.061 25.995,96.113 28.33,91.263 33.923,91.406 	"/>
	<path fill="#563725" d="M80.486,66.21c0,0-0.462,10.635,0.694,11.098C82.335,77.77,82.335,66.672,80.486,66.21z"/>
	<path fill="#563725" d="M57.366,68.753c0,0-1.156,10.404,0,10.404C58.522,79.157,58.753,69.678,57.366,68.753z"/>
</g>
</svg>
