<?xml version="1.0" encoding="utf-8"?>
<!-- Generator: Adobe Illustrator 17.1.0, SVG Export Plug-In . SVG Version: 6.00 Build 0)  -->
<!DOCTYPE svg PUBLIC "-//W3C//DTD SVG 1.1//EN" "http://www.w3.org/Graphics/SVG/1.1/DTD/svg11.dtd">
<svg version="1.1" id="Layer_1" xmlns="http://www.w3.org/2000/svg" xmlns:xlink="http://www.w3.org/1999/xlink" x="0px" y="0px"
	 viewBox="0 0 185 185" enable-background="new 0 0 185 185" xml:space="preserve">
<g>
	<ellipse opacity="0.4" fill="#1A1A1A" enable-background="new    " cx="77.848" cy="170.305" rx="62.736" ry="11.852"/>
	<g>
		<path fill="#FBDCBE" d="M130.058,84.115c4.838,1.363,10.387-1.948,10.714-9.097c0.892-19.461,0.24-25.599,0.24-25.599
			s-0.049-1.365,0.671-1.538c0.72-0.172,0.9-0.17,1.046-0.162c0.145,0.009,0.575,1.147,0.575,1.147s-0.168-1.08,1.051-1.276
			c1.219-0.195,1.072,0.731,1.072,0.731s0.34-0.854,1.387-1.016c1.046-0.162,0.905,0.798,0.905,0.798s0.287-0.951,1.298-1.107
			c1.012-0.155,0.709,0.333,0.702,1.626c-0.004,0.838,0.396,16.065-3.158,28.973c-1.931,7.013-8.047,13.334-13.808,13.836
			c-3.025-0.008-9.013-1.602-11.744-2.903c-2.376-1.132-6.027-7.681-4.092-9.341C119.579,76.902,126.681,83.163,130.058,84.115z"/>
		<polyline fill="#F0F0F0" points="108.512,85.302 120.202,87.383 121.079,79.358 113.85,75.104 		"/>
	</g>
	<path fill="#F0F0F0" d="M32.299,136.85c0,0-7.311-25.4-8.466-37.329c-1.155-11.93-1.54-17.317-1.54-17.317
		s35.406-0.769,44.255-0.769s46.181-7.311,47.719-7.697s1.54,31.556,0.769,35.406c-0.769,3.848-3.464,24.629-3.464,24.629
		s-19.627,4.233-35.02,4.233S32.299,136.85,32.299,136.85z"/>
	<path fill="#FBDCBE" d="M25.682,81.467c0,0-3.267-14.524-2.36-21.604s4.001-18.553,8.533-22.513
		c7.71-6.734,23.783-7.988,40.123-8.171s23.272,0.502,29.048,5.083c4.227,3.351,9.696,13.303,11.075,18.518
		c1.27,4.803,1.816,19.426,1.816,19.79s-30.864,6.899-44.48,8.171C55.819,82.011,29.313,82.193,25.682,81.467z"/>
	<path fill="#563725" d="M23.14,81.467c0,0-3.267-10.348-3.449-21.967c-0.181-11.619,3.267-22.876,6.173-25.599
		s5.431-3.725,6.527-4.507c1.095-0.783,1.643-0.783,2.347-2.816c0.703-2.033,3.599-10.64,6.728-13.144s10.874-8.294,17.524-8.136
		c6.65,0.157,22.063,2.738,27.539,3.834c5.476,1.095,13.926,2.425,18.934,2.347c5.008-0.078,8.527-1.017,10.249-1.877
		c1.721-0.861,4.449-3.198,5.169-4.196c0.72-0.996,1.107-2.047,1.549-2.378c0.442-0.331,1.107-0.111,1.107-0.111
		s-2.489,9.403-3.872,11.727c-1.383,2.323-6.196,9.57-8.463,11.727c-2.269,2.158-12.943,9.514-14.272,9.901
		c-1.327,0.387-15.852,6.185-24.329,6.881c-8.477,0.694-26.25-2.105-26.25-2.105s0.235,0.708,0,1.299
		c-0.235,0.591-0.354,10.504-3.305,10.267c-2.951-0.235-5.145-0.73-5.343,2.153c-0.199,2.883-0.249,2.933,0.945,3.678
		c1.194,0.745,3.678,0.397,3.828,1.243c0.15,0.846,0.148,0.895-0.148,1.591c-0.298,0.696-1.69,8.003-6.959,12.924
		c-5.269,4.921-10.837,6.811-11.086,7.06C24.032,81.507,24.088,82.271,23.14,81.467z"/>
	<path fill="#563725" d="M81.027,67.019l14.609-2.045c0,0,1.607,8.766-4.675,10.079c-6.283,1.314-10.079-5.698-9.934-7.451"/>
	<path fill="#563725" d="M31.796,136.557l0.145,28.925c0,0-1.023,1.607,3.945,1.46c4.966-0.145,6.866-0.438,7.304-3.213
		c0.438-2.776,0-3.213-0.585-3.213s-4.966,2.776-5.551,1.46s1.9-16.508,1.9-16.508s0.145-1.315,1.753-1.315
		c1.607,0,23.812,1.607,26.734,1.607s24.251-1.607,28.632-2.483c4.383-0.877,7.073-2.446,7.511-2.446
		c0.438,0,1.375-0.222,1.595,0.292c0.22,0.514-2.117,24.54-1.822,24.981c0.294,0.441,6.617,0.22,8.896-0.073
		c2.279-0.294,5.368-2.867,5.295-3.971c-0.073-1.104-1.471-2.059-2.5-2.72s-6.544,1.029-6.544,1.029s3.513-22.702,3.366-23.584
		s-1.104-2.426-2.5-2.353c-1.396,0.073-12.252,2.692-14.017,2.912c-1.765,0.22-31.837,1.177-39.851,0.882
		C47.49,137.934,32.204,136.136,31.796,136.557z"/>
	<polygon fill="#563725" points="81.876,85.655 80.927,95.77 84.404,97.508 81.086,116.157 88.671,126.43 95.783,118.687 
		91.832,99.089 93.887,90.555 91.516,85.814 	"/>
	<g>
		<path fill="#FBDCBE" d="M36.184,91.049c-2.413-0.826-6.205,5.642-5.977,8.263c0.261,3.013,1.926,8.983,3.452,11.594
			c5.048,11.007,11.12,11.114,19.295,7.834c10.843-4.351,21.114-9.188,21.77-9.524c1.15-0.588,1.723-0.543,1.12-1.37
			s-1.579-0.644-1.579-0.644s0.916-0.315,0.292-1.17c-0.624-0.855-1.539-0.765-1.539-0.765s0.889-0.294,0.156-1.287
			c-0.733-0.993-1.615-0.347-1.615-0.347s0.815-0.905,0.754-1.038s-0.14-0.292-0.625-0.854c-0.484-0.56-1.674,0.111-1.674,0.111
			s-5.152,3.402-22.845,11.554c-6.5,2.995-7.296-3.671-8.574-8.533C37.705,101.48,39.499,92.184,36.184,91.049z"/>
		<polyline fill="#F0F0F0" stroke="#B4B4B4" stroke-width="0.8456" stroke-miterlimit="10" points="40.584,88.133 38.32,96.211 
			30.339,97.417 29.359,85.583 		"/>
	</g>
	<path fill="#563725" d="M99.174,44.911c0,0-0.693,15.947,1.041,16.641C101.946,62.245,101.946,45.604,99.174,44.911z"/>
	<path fill="#563725" d="M64.506,48.724c0,0-1.733,15.601,0,15.601C66.239,64.325,66.586,50.111,64.506,48.724z"/>
	<g>
		<path fill="#FEF8E5" d="M143.215,51.513l4.237,2.67c0,0,6.943-8.479,8.686-9.748c1.742-1.269,9.158-7.67,9.158-7.67
			s-7.234-3.986-7.638-4.15c-0.404-0.165-5.495-2.24-5.495-2.24s-2.284,1.916-3.386,4.125
			C147.294,37.472,143.532,50.04,143.215,51.513z"/>
		<path fill="#7BAD8D" d="M144.008,50.793c0,0,1.205-4.578,2.85-9.277c1.801-5.144,4.514-10.367,5.98-10.013
			c3.531,0.852,11.386,5.286,11.386,5.286s-16.448,14.251-16.735,15.746S144.008,50.793,144.008,50.793z"/>
		<path fill="#FEF8E5" d="M145.239,50.276c0,0,1.353-5.998,3.087-9.876s4.545-7.776,4.545-7.776s2.519,0.568,4.092,1.21
			c1.573,0.641,5.582,2.428,5.582,2.428s-6.738,5.768-8.921,7.789c-1.78,1.647-6.203,7.138-6.203,7.138L145.239,50.276z"/>
		<g>
			<path fill="#7BAD8D" d="M149.592,42.413c0.658,0.815,2.713,2.035,4.393,0.747c1.68-1.287,0.579-4.38,0.028-5.1
				c-0.552-0.72-2.144-0.643-3.344,0.277S148.813,41.448,149.592,42.413z"/>
			<path fill="#FEF8E5" d="M153.137,38.184c-0.606-0.264-2.154,0.212-2.591,0.823c-0.437,0.611-1.634,2.717,0.091,3.833
				c1.725,1.117,3.238,0.079,3.461-0.469C154.322,41.824,154.478,38.768,153.137,38.184z"/>
			<path fill="#7BAD8D" d="M150.975,38.902c0,0-0.55,1.437-0.366,1.677c0.184,0.24,1.427-0.458,1.733-0.058s0.064,2.237,0.064,2.237
				s1.304-0.618,1.237-1.202s-1.255-2.467-2.117-1.933c-0.861,0.533,0.168-1.272,0.168-1.272L150.975,38.902z"/>
		</g>
	</g>
	<g>
		<path fill="#FEF8E5" d="M143.307,53.061l5.128,0.688c0,0,2.882-10.948,3.974-12.889s5.31-11.14,5.31-11.14
			s-8.509-0.638-8.959-0.619s-6.125,0.256-6.125,0.256s-1.323,2.781-1.409,5.33C141.108,38.117,142.972,51.541,143.307,53.061z"/>
		<path fill="#7BAD8D" d="M143.742,52.043c0,0-0.834-4.819-1.307-9.94c-0.517-5.606-0.211-11.679,1.318-11.977
			c3.683-0.716,12.968,0.076,12.968,0.076s-9.333,20.454-8.96,21.981C148.133,53.712,143.742,52.043,143.742,52.043z"/>
		<path fill="#FEF8E5" d="M144.677,51.029c0,0-1.305-6.216-1.342-10.605s0.931-9.258,0.931-9.258s2.611-0.548,4.364-0.621
			c1.753-0.073,6.288-0.116,6.288-0.116s-3.854,8.313-5.037,11.149c-0.965,2.312-2.762,9.37-2.762,9.37L144.677,51.029z"/>
		<g>
			<path fill="#7BAD8D" d="M145.39,41.772c0.969,0.483,3.422,0.747,4.448-1.184c1.025-1.931-1.337-4.365-2.165-4.804
				c-0.828-0.439-2.29,0.316-3.023,1.696S144.244,41.2,145.39,41.772z"/>
			<path fill="#FEF8E5" d="M146.905,36.276c-0.683,0.012-1.932,1.124-2.081,1.886c-0.148,0.762-0.368,3.254,1.732,3.563
				c2.1,0.308,3.076-1.316,3.051-1.927C149.581,39.187,148.415,36.249,146.905,36.276z"/>
			<path fill="#7BAD8D" d="M145.182,37.879c0,0,0.101,1.586,0.377,1.733c0.276,0.146,1.143-1.043,1.603-0.799s1.02,2.074,1.02,2.074
				s0.96-1.141,0.646-1.661s-2.239-1.778-2.819-0.908c-0.58,0.871-0.388-1.267-0.388-1.267L145.182,37.879z"/>
		</g>
	</g>
	<g>
		<path fill="#FEF8E5" d="M142.365,53.012l5.078-0.585c0,0,0.103-11.185,0.678-13.309c0.575-2.124,2.382-11.958,2.382-11.958
			s-8.304,1.454-8.731,1.582c-0.427,0.127-5.804,1.731-5.804,1.731s-0.592,2.984-0.056,5.447
			C136.633,39.233,141.676,51.638,142.365,53.012z"/>
		<path fill="#7BAD8D" d="M142.535,51.932c0,0-1.969-4.413-3.664-9.203c-1.856-5.244-3.037-11.135-1.644-11.79
			c3.354-1.579,12.438-3.074,12.438-3.074s-3.974,21.854-3.247,23.227C147.146,52.465,142.535,51.932,142.535,51.932z"/>
		<path fill="#FEF8E5" d="M143.185,50.734c0,0-2.759-5.637-3.859-9.831c-1.1-4.194-1.356-9.093-1.356-9.093s2.368-1.159,4.029-1.654
			c1.661-0.496,5.994-1.637,5.994-1.637s-1.673,8.897-2.118,11.901c-0.363,2.449-0.371,9.645-0.371,9.645L143.185,50.734z"/>
		<g>
			<path fill="#7BAD8D" d="M141.621,41.695c1.045,0.227,3.459-0.115,3.973-2.214c0.513-2.098-2.34-3.856-3.239-4.076
				c-0.899-0.22-2.117,0.859-2.483,2.358S140.384,41.425,141.621,41.695z"/>
			<path fill="#FEF8E5" d="M141.738,36.063c-0.651,0.177-1.578,1.546-1.535,2.311s0.437,3.206,2.524,2.992s2.627-2.007,2.454-2.586
				S143.178,35.671,141.738,36.063z"/>
			<path fill="#7BAD8D" d="M140.477,38.017c0,0,0.482,1.495,0.781,1.568c0.3,0.073,0.842-1.277,1.342-1.154
				c0.5,0.122,1.481,1.739,1.481,1.739s0.642-1.326,0.216-1.748c-0.426-0.422-2.576-1.16-2.92-0.185
				c-0.344,0.975-0.679-1.119-0.679-1.119L140.477,38.017z"/>
		</g>
	</g>
	<path fill="#FBDCBE" d="M141.196,51.311c0,0,3.146-3.469,3.983-2.619c0.838,0.85-2.314,5.163-2.397,5.509"/>
	<polygon fill="#CADED1" points="132.122,28.235 127.437,22.734 131.307,20.697 134.159,27.216 	"/>
	<polygon fill="#CADED1" points="141.516,26.246 138.808,19.798 142.29,19.411 143.064,25.988 	"/>
	<polygon fill="#CADED1" points="151.446,25.085 153.753,25.988 156.476,18.766 151.833,18.508 	"/>
	<polygon fill="#CADED1" points="162.279,31.147 166.406,25.859 169.888,30.115 164.214,33.21 	"/>
</g>
</svg>
