<?xml version="1.0" encoding="utf-8"?>
<!-- Generator: Adobe Illustrator 17.1.0, SVG Export Plug-In . SVG Version: 6.00 Build 0)  -->
<!DOCTYPE svg PUBLIC "-//W3C//DTD SVG 1.1//EN" "http://www.w3.org/Graphics/SVG/1.1/DTD/svg11.dtd">
<svg version="1.1" id="Layer_1" xmlns="http://www.w3.org/2000/svg" xmlns:xlink="http://www.w3.org/1999/xlink" x="0px" y="0px"
	 viewBox="0 0 185 185" enable-background="new 0 0 185 185" xml:space="preserve">
<g>
	<path opacity="0.4" fill="#1A1A1A" enable-background="new    " d="M24.229,169.728c-0.002-3.985,18.604-14.043,66.124-12.283
		c47.52,1.76,58.506,8.725,58.419,12.283c-0.087,3.557-10.396,11.777-59.424,11.854C40.392,181.66,24.232,176.123,24.229,169.728z"
		/>
	<path fill="#F0F0F0" d="M47.288,136.521c0,0-7.257-25.211-8.403-37.053s-1.529-17.189-1.529-17.189s35.143-0.764,43.927-0.764
		c8.784,0,45.838-7.257,47.365-7.64c1.527-0.383,1.529,31.322,0.764,35.143c-0.764,3.819-3.438,24.446-3.438,24.446
		s-19.481,4.202-34.76,4.202S47.288,136.521,47.288,136.521z"/>
	<path fill="#FBDCBE" d="M40.72,81.549c0,0-3.243-14.416-2.343-21.444s3.971-18.415,8.47-22.346
		c7.653-6.684,23.607-7.928,39.825-8.11s23.099,0.499,28.832,5.046c4.196,3.326,9.624,13.205,10.993,18.381
		c1.261,4.767,1.802,20.282,1.802,20.643s-30.708,6.048-44.223,7.31C70.562,82.289,44.325,82.269,40.72,81.549z"/>
	<path fill="#563725" d="M38.197,81.549c0,0-3.243-10.271-3.423-21.804c-0.18-11.533,3.243-22.706,6.128-25.409
		s5.391-3.697,6.479-4.474c1.086-0.777,1.631-0.777,2.329-2.795c0.698-2.018,3.572-10.561,6.678-13.047
		c3.106-2.486,10.794-8.232,17.394-8.076c6.601,0.156,21.9,2.718,27.335,3.806c5.435,1.086,13.822,2.407,18.793,2.329
		c4.971-0.077,8.464-1.009,10.173-1.863c1.709-0.854,4.416-3.175,5.13-4.164c0.714-0.988,1.098-2.032,1.537-2.361
		c0.439-0.329,1.098-0.11,1.098-0.11s-2.471,9.333-3.843,11.64c-1.372,2.305-6.15,9.499-8.4,11.64
		c-2.252,2.142-12.847,9.444-14.166,9.828c-1.317,0.384-15.735,6.139-24.149,6.83c-8.414,0.689-26.055-2.09-26.055-2.09
		s0.234,0.703,0,1.289s-0.351,10.426-3.28,10.191c-2.929-0.234-5.107-0.725-5.303,2.137c-0.198,2.862-0.247,2.911,0.938,3.651
		c1.185,0.74,3.651,0.394,3.8,1.234c0.149,0.839,0.147,0.889-0.147,1.579c-0.296,0.691-1.677,7.943-6.907,12.828
		s-10.756,6.76-11.003,7.007C39.083,81.589,39.138,82.346,38.197,81.549z"/>
	<path fill="#563725" d="M110.377,73.211l-14.471,2.234c0,0-1.718-8.678,4.5-10.069c6.217-1.391,10.083,5.515,9.963,7.256"/>
	<path fill="#563725" d="M46.79,136.231l0.144,28.71c0,0-1.015,1.596,3.916,1.45c4.929-0.144,6.815-0.435,7.25-3.19
		c0.435-2.755,0-3.19-0.58-3.19c-0.58,0-4.929,2.755-5.51,1.45s1.886-16.385,1.886-16.385s0.144-1.305,1.74-1.305
		c1.596,0,23.635,1.596,26.536,1.596s24.071-1.596,28.42-2.465c4.35-0.871,7.021-2.428,7.455-2.428c0.435,0,1.365-0.22,1.584,0.29
		c0.219,0.511-2.102,24.358-1.808,24.796c0.292,0.438,6.568,0.219,8.83-0.073c2.262-0.292,5.328-2.846,5.255-3.941
		s-1.46-2.044-2.481-2.7c-1.021-0.656-6.495,1.021-6.495,1.021s3.487-22.534,3.341-23.409c-0.146-0.875-1.095-2.408-2.481-2.335
		c-1.386,0.073-12.161,2.672-13.913,2.89c-1.752,0.219-31.601,1.168-39.556,0.875C62.367,137.597,47.195,135.812,46.79,136.231z"/>
	<polygon fill="#563725" points="82.45,85.706 81.507,95.746 84.959,97.471 81.665,115.982 89.195,126.178 96.254,118.493 
		92.332,99.04 94.371,90.57 92.018,85.863 	"/>
	<g>
		<path fill="#FBDCBE" d="M45.77,87.097c-2.527-0.148-4.431,7.047-3.515,9.493c1.052,2.811,4.233,8.077,6.387,10.168
			c8.261,8.015,38.609,22.662,39.783,23.181c1.173,0.519,1.496,0.988,1.757,0.006c0.261-0.982-0.492-1.62-0.492-1.62
			s0.815,0.509,1.084-0.506c0.269-1.016-0.373-1.664-0.373-1.664s0.783,0.501,1.089-0.685s-0.743-1.462-0.743-1.462
			s1.207,0.061,1.272-0.068c0.065-0.129,0.137-0.291,0.267-1.016c0.128-0.723-1.133-1.221-1.133-1.221s-5.844-1.842-23.196-10.376
			c-6.375-3.135-13.684-7.344-16.2-11.653C50.001,96.667,49.242,87.3,45.77,87.097z"/>
		<polyline fill="#F0F0F0" stroke="#B4B4B4" stroke-width="1.4048" stroke-miterlimit="10" points="49.201,83.138 49.187,91.465 
			41.876,94.742 37.788,83.687 		"/>
	</g>
	<path fill="#563725" d="M113.667,45.264c0,0-0.688,15.829,1.033,16.518C116.419,62.469,116.419,45.952,113.667,45.264z"/>
	<path fill="#563725" d="M79.257,49.049c0,0-1.721,15.485,0,15.485C80.977,64.534,81.321,50.426,79.257,49.049z"/>
	<path fill="none" stroke="#563725" stroke-width="1.4048" stroke-miterlimit="10" d="M68.151,54.329c0,0,3.893-1.298,6.303-5.005"
		/>
	<path fill="none" stroke="#563725" stroke-width="1.4048" stroke-miterlimit="10" d="M110.701,40.635c0,0,4.066,4.405,9.149,6.777"
		/>
	<g>
		<path fill="#FBDCBE" d="M120.982,87.075c2.528-0.088,4.264,7.149,3.29,9.573c-1.12,2.786-4.422,7.976-6.626,10.015
			c-8.447,7.82-39.132,21.747-40.318,22.239c-1.186,0.491-1.521,0.953-1.758-0.035c-0.236-0.987,0.53-1.608,0.53-1.608
			s-0.829,0.491-1.073-0.532c-0.243-1.022,0.413-1.655,0.413-1.655s-0.795,0.482-1.074-0.71c-0.278-1.194,0.778-1.445,0.778-1.445
			s-1.207,0.032-1.27-0.098c-0.062-0.131-0.131-0.296-0.243-1.022c-0.112-0.727,1.161-1.194,1.161-1.194s5.885-1.704,23.433-9.827
			c6.446-2.984,13.853-7.02,16.47-11.268C116.522,96.544,117.5,87.196,120.982,87.075z"/>
		<polyline fill="#F0F0F0" stroke="#B4B4B4" stroke-width="1.4048" stroke-miterlimit="10" points="120.475,82.033 118.055,89.999 
			124.09,95.271 131.229,85.892 		"/>
	</g>
</g>
</svg>
