<?xml version="1.0" encoding="utf-8"?>
<!-- Generator: Adobe Illustrator 17.1.0, SVG Export Plug-In . SVG Version: 6.00 Build 0)  -->
<!DOCTYPE svg PUBLIC "-//W3C//DTD SVG 1.1//EN" "http://www.w3.org/Graphics/SVG/1.1/DTD/svg11.dtd">
<svg version="1.1" xmlns="http://www.w3.org/2000/svg" xmlns:xlink="http://www.w3.org/1999/xlink" x="0px" y="0px"
	 viewBox="0 0 135 125" enable-background="new 0 0 135 125" xml:space="preserve">
<g id="Layer_1">
</g>
<g id="Layer_2">
	<g>
		<ellipse opacity="0.4" fill="#1A1A1A" cx="44.781" cy="115.059" rx="41.839" ry="7.904"/>
		<path fill="#9E6F43" d="M80.272,107.519c-0.376-2.426-1.145-4.852-1.604-5.616c-0.246-0.411-0.917-0.619-1.817-0.695
			c-0.34,1.471-2.572,3.053-2.572,3.565c0,0.675-7.597,0.844-9.96,0.338c-0.653-0.14-1.016-0.423-1.208-0.757
			c-1.961,1.308-3.811,3.085-4.194,4.809c-0.675,3.039,3.557,4.259,3.557,4.259c0.058,0.028,0.129,0.047,0.189,0.074
			c1.648-0.104,3.822-0.643,6.551-2.138C75.408,107.964,78.381,108.823,80.272,107.519z"/>
		<path fill="#9E6F43" d="M78.668,113.382c1.94,0,2.059-2.932,1.604-5.863c-1.891,1.304-4.864,0.445-11.058,3.837
			c-2.73,1.495-4.903,2.034-6.551,2.138C66.336,115.083,75.18,113.382,78.668,113.382z"/>
		<path fill="#775332" d="M78.668,113.382c1.94,0,2.059-2.932,1.604-5.863c-1.891,1.304-4.864,0.445-11.058,3.837
			c-2.73,1.495-4.903,2.034-6.551,2.138C66.336,115.083,75.18,113.382,78.668,113.382z"/>
		<path fill="#9E6F43" d="M64.318,105.11c2.363,0.507,9.96,0.338,9.96-0.338c0-0.512,2.232-2.094,2.572-3.565
			c-2.802-0.239-7.874,0.819-9.662,1.202c-1.023,0.219-2.583,0.945-4.078,1.943C63.303,104.687,63.666,104.97,64.318,105.11z"/>
		<path fill="#775332" d="M64.318,105.11c2.363,0.507,9.96,0.338,9.96-0.338c0-0.512,2.232-2.094,2.572-3.565
			c-2.802-0.239-7.874,0.819-9.662,1.202c-1.023,0.219-2.583,0.945-4.078,1.943C63.303,104.687,63.666,104.97,64.318,105.11z"/>
		<path fill="#FBDCBE" d="M38.121,61.807c0,0,6.654,5.988,16.967,5.656s19.629-5.545,22.623-18.187
			c2.994-12.642,3.327-16.745,3.327-16.745s0.137-0.901,0.631-0.924c0.494-0.024,0.611,0,0.705,0.024
			c0.094,0.024,0.235,0.823,0.235,0.823s0.024-0.729,0.846-0.705c0.823,0.024,0.611,0.611,0.611,0.611s0.329-0.517,1.035-0.494
			c0.705,0.024,0.494,0.635,0.494,0.635s0.306-0.588,0.988-0.564c0.682,0.024,0.423,0.306,0.259,1.152
			c-0.165,0.846-5.219,22.916-9.234,29.526c-1.047,1.724-4.021,4.595-5.705,5.705c-3.231,2.13-10.662,5.262-14.588,5.173
			c-3.926-0.089-14.635-2.499-17.223-4.016c-2.588-1.517-4.819-3.659-4.819-3.659s-0.535-1.785,0.357-2.945
			C36.521,61.712,38.121,61.807,38.121,61.807z"/>
		<path fill="#F0F0F0" d="M9.91,92.749c0,0-4.876-16.939-5.646-24.895S3.237,56.305,3.237,56.305s23.612-0.513,29.514-0.513
			s30.798-4.876,31.824-5.133c1.027-0.257,1.027,21.045,0.513,23.612c-0.513,2.566-2.31,16.425-2.31,16.425
			s-13.089,2.823-23.355,2.823S9.91,92.749,9.91,92.749z"/>
		<path fill="#FBDCBE" d="M5.497,55.813c0,0-2.179-9.686-1.574-14.408s2.668-12.373,5.691-15.014
			c5.142-4.491,15.861-5.327,26.758-5.449s15.52,0.335,19.372,3.39c2.819,2.235,6.466,8.872,7.386,12.35
			c0.847,3.203,1.211,12.955,1.211,13.198c0,0.242-20.583,4.601-29.664,5.449S7.919,56.298,5.497,55.813z"/>
		<path fill="#563725" d="M3.802,55.813c0,0-2.179-6.901-2.3-14.65s2.179-15.256,4.117-17.072s3.622-2.484,4.353-3.006
			s1.096-0.522,1.565-1.878c0.47-1.357,2.4-7.096,4.487-8.766c2.087-1.67,7.252-5.531,11.687-5.426
			c4.435,0.104,14.714,1.826,18.366,2.557c3.652,0.73,9.287,1.617,12.627,1.565c3.339-0.052,5.687-0.678,6.835-1.252
			c1.148-0.574,2.967-2.133,3.447-2.798c0.48-0.664,0.738-1.365,1.033-1.586c0.295-0.221,0.738-0.074,0.738-0.074
			s-1.66,6.271-2.582,7.821s-4.132,6.382-5.644,7.821c-1.513,1.439-8.632,6.345-9.518,6.603S42.44,29.797,36.787,30.26
			s-17.506-1.404-17.506-1.404s0.157,0.472,0,0.866c-0.157,0.394-0.236,7.005-2.204,6.847s-3.431-0.487-3.563,1.436
			c-0.133,1.923-0.166,1.956,0.63,2.453c0.796,0.497,2.453,0.265,2.553,0.829c0.099,0.564,0.099,0.597-0.099,1.061
			s-1.127,5.337-4.641,8.619s-7.227,4.542-7.393,4.708S4.434,56.349,3.802,55.813z"/>
		<path fill="#563725" d="M42.407,46.179l9.743-1.364c0,0,1.072,5.846-3.118,6.722s-6.722-3.8-6.625-4.969"/>
		<path fill="#563725" d="M9.575,92.553l0.097,19.29c0,0-0.682,1.072,2.631,0.974s4.579-0.292,4.871-2.143
			c0.292-1.851,0-2.143-0.39-2.143s-3.312,1.851-3.702,0.974c-0.39-0.877,1.267-11.009,1.267-11.009s0.097-0.877,1.169-0.877
			s15.88,1.072,17.829,1.072c1.949,0,16.173-1.072,19.095-1.656s10.717-2.631,11.009-2.631c0.292,0,0.917-0.148,1.064,0.195
			c0.147,0.343,0.588,9.366,0.785,9.66c0.196,0.294,4.413,0.147,5.933-0.049c1.52-0.196,3.58-1.912,3.531-2.648
			c-0.049-0.736-0.981-1.373-1.667-1.814c-0.686-0.441-4.364,0.686-4.364,0.686s0.343-8.14,0.245-8.728
			c-0.098-0.588-0.736-1.618-1.667-1.569s-14.171,2.795-15.348,2.942c-1.177,0.147-21.232,0.785-26.577,0.588
			C20.041,93.472,9.847,92.273,9.575,92.553z"/>
		<path fill="#9E6F43" d="M53.118,29.703c0,0-3.108,0.175-3.774,0.878c-1.077,1.136-0.79,4.476-0.614,6.232
			c0.176,1.755,1.229,4.564,1.229,4.564s3.774,1.141,4.915,0.088S53.834,29.673,53.118,29.703z"/>
		<path fill="#DFB83E" d="M52.402,29.732c0,0-1.91,4.201-1.299,7.104c0.611,2.903,1.757,4.965,2.444,5.195
			c0.688,0.229,3.896-0.458,3.667-3.972s-1.146-8.25-1.986-8.479C54.388,29.35,52.937,29.579,52.402,29.732z"/>
		<polygon fill="#563725" points="42.973,58.607 42.341,65.352 44.659,66.512 42.446,78.949 47.505,85.8 52.248,80.635 
			49.613,67.566 50.983,61.874 49.402,58.712 		"/>
		<polyline fill="none" stroke="#563725" stroke-miterlimit="10" points="27.374,44.484 37.176,39.319 29.271,36.157 		"/>
		<path fill="#9E6F43" d="M53.854,32.711c0,0-0.993,2.215-0.611,3.285c0.382,1.069,1.91,3.056,3.361,3.056
			c1.451,0,17.875-0.993,19.632-1.681c1.757-0.688-0.917-10.084-0.917-10.084S55.687,32.024,53.854,32.711z"/>
		<path fill="#DFB83E" d="M66.382,23.315c0,0-1.833,8.097-1.299,11.153c0.535,3.056,2.521,9.014,3.667,9.549
			c1.146,0.535,13.827,0.764,16.729-0.611c2.903-1.375-1.299-23.146-2.597-23.91C81.583,18.732,67.604,22.628,66.382,23.315z"/>
		<path fill="#9E6F43" d="M83.634,10.7c0,0-5.005,7.508-3.273,19.829c1.733,12.321,5.391,19.444,8.663,20.407
			c3.273,0.963,28.685-0.578,28.685-0.578l-9.626-46.012L83.634,10.7z"/>
		<path fill="#DFB83E" d="M110.779,2.036c0,0-18.289,1.54-15.787,25.99s16.942,24.45,19.829,24.45s18.289-2.503,18.674-25.99
			S117.902,2.999,110.779,2.036z"/>
		<path fill="#F2F2F2" d="M110.586,4.732c0,0-14.054,0.385-13.861,22.91s14.054,21.755,16.942,22.14s16.942-2.695,17.904-18.482
			C132.533,15.513,125.218,3.769,110.586,4.732z"/>
		<path fill="#FBDCBE" d="M15.121,66.807c0,0,6.654,5.988,16.967,5.656s19.629-5.545,22.623-18.187s3.327-16.745,3.327-16.745
			s0.137-0.901,0.631-0.924c0.494-0.024,0.611,0,0.705,0.024c0.094,0.024,0.235,0.823,0.235,0.823s0.024-0.729,0.846-0.705
			c0.823,0.024,0.611,0.611,0.611,0.611s0.329-0.517,1.035-0.494c0.705,0.024,0.494,0.635,0.494,0.635s0.306-0.588,0.988-0.564
			c0.682,0.024,0.423,0.306,0.259,1.152c-0.165,0.846-5.219,22.916-9.234,29.526c-1.047,1.724-4.021,4.595-5.705,5.705
			c-3.231,2.13-10.662,5.262-14.588,5.173c-3.926-0.089-14.635-2.499-17.223-4.016c-2.588-1.517-4.819-3.659-4.819-3.659
			s-0.535-1.785,0.357-2.945C13.521,66.712,15.121,66.807,15.121,66.807z"/>
		<path fill="#7BAD8D" d="M118.358,31.24c-0.313,0.582-0.715,1.056-1.323,1.425c-0.609,0.369-1.458,0.588-2.108,0.658v2.183
			c0,0.345-0.092,0.597-0.159,0.754c-0.068,0.158-0.244,0.237-0.472,0.237c-0.21,0-0.408-0.064-0.493-0.193
			c-0.085-0.127-0.176-0.326-0.176-0.596V33.34c-0.65-0.075-1.247-0.237-1.759-0.482c-0.512-0.246-0.921-0.551-1.263-0.917
			s-0.586-0.745-0.75-1.14c-0.164-0.394-0.241-0.781-0.241-1.162c0-0.281,0.112-0.533,0.331-0.759
			c0.219-0.225,0.493-0.338,0.821-0.338c0.263,0,0.486,0.062,0.667,0.184c0.181,0.123,0.308,0.295,0.378,0.517
			c0.158,0.479,0.295,0.846,0.413,1.101c0.117,0.255,0.258,0.487,0.495,0.697c0.236,0.212,0.907,0.373,0.907,0.484v-4.078
			c-0.65-0.216-1.403-0.457-1.93-0.723s-0.936-0.645-1.263-1.136c-0.328-0.491-0.482-1.123-0.482-1.894
			c0-1.006,0.289-1.829,0.93-2.473c0.64-0.644,1.445-1.018,2.745-1.123v-0.93c0-0.491,0.278-0.737,0.646-0.737
			c0.374,0,0.655,0.239,0.655,0.718v0.947c0.65,0.065,1.104,0.193,1.551,0.386c0.447,0.193,0.809,0.486,1.142,0.878
			c0.263,0.298,0.452,0.605,0.595,0.921s0.207,0.605,0.207,0.869c0,0.292-0.111,0.545-0.324,0.759
			c-0.213,0.213-0.474,0.32-0.778,0.32c-0.573,0-0.887-0.31-1.056-0.93c-0.193-0.73-0.687-1.216-1.337-1.456v3.649
			c0.65,0.199,1.244,0.38,1.674,0.544c0.43,0.164,0.785,0.4,1.125,0.711c0.362,0.322,0.627,0.706,0.823,1.153
			c0.196,0.447,0.287,0.937,0.287,1.469C118.835,30.035,118.671,30.659,118.358,31.24z"/>
		<polyline fill="#F0F0F0" stroke="#B4B4B4" stroke-miterlimit="10" points="4.819,67.144 11.881,70.728 13.989,65.774 
			10.194,61.663 		"/>
	</g>
</g>
</svg>
